<svg preserveAspectRatio="none" overflow="visible" style="display: block;" width="16" height="16" viewBox="0 0 16 16" fill="none" xmlns="http://www.w3.org/2000/svg">
<g id="icon">
<path id="Union" d="M8 1.92871C11.353 1.92884 14.0712 4.64699 14.0713 8C14.0713 11.353 11.353 14.0712 8 14.0713C4.64693 14.0712 1.92874 11.3531 1.92871 8C1.92879 4.64695 4.64695 1.92879 8 1.92871ZM8 2.92871C5.19924 2.92879 2.92879 5.19924 2.92871 8C2.92874 10.8008 5.19921 13.0712 8 13.0713C10.8007 13.0712 13.0713 10.8008 13.0713 8C13.0712 5.19927 10.8007 2.92884 8 2.92871ZM8 4.07129C8.27612 4.07129 8.49997 4.29517 8.5 4.57129V5.4043C8.74559 5.45223 8.97777 5.53787 9.17773 5.66504C9.52033 5.88306 9.78516 6.24156 9.78516 6.71484C9.78484 6.99072 9.5611 7.21484 9.28516 7.21484C9.00927 7.21477 8.78547 6.99067 8.78516 6.71484C8.78516 6.6569 8.76272 6.58648 8.64062 6.50879C8.50815 6.42459 8.2869 6.35749 8 6.35742C7.8168 6.35742 7.67007 6.358 7.54199 6.36914C7.41344 6.38033 7.33981 6.40006 7.29883 6.41895C7.27001 6.4323 7.26262 6.44172 7.25488 6.45605C7.24163 6.48077 7.21387 6.55284 7.21387 6.71484C7.21403 6.83844 7.26476 6.95138 7.43555 7.09375C7.62319 7.25007 7.88813 7.38498 8.22363 7.55273C8.53077 7.7063 8.90877 7.89343 9.20312 8.13867C9.51402 8.3978 9.78516 8.76723 9.78516 9.28613C9.78511 9.55189 9.74153 9.80217 9.625 10.0186C9.50291 10.245 9.32124 10.3967 9.11816 10.4902C8.92678 10.5783 8.72301 10.6123 8.54395 10.6279C8.52941 10.6292 8.51468 10.6288 8.5 10.6299V11.4287C8.49977 11.7047 8.276 11.9287 8 11.9287C7.724 11.9287 7.50023 11.7047 7.5 11.4287V10.6055C7.26814 10.5692 7.04059 10.5037 6.84082 10.3887C6.45844 10.1684 6.21401 9.79178 6.21387 9.28613C6.21387 9.00999 6.43772 8.78613 6.71387 8.78613C6.99001 8.78613 7.21387 9.00999 7.21387 9.28613C7.21393 9.36977 7.23219 9.41384 7.24609 9.4375C7.26043 9.4618 7.28634 9.49164 7.33984 9.52246C7.46022 9.59163 7.67636 9.64185 7.99316 9.64258H8.00781C8.18708 9.64256 8.33093 9.64279 8.45703 9.63184C8.58547 9.62066 8.65919 9.6009 8.7002 9.58203C8.72927 9.56861 8.73639 9.5583 8.74414 9.54395C8.75738 9.51925 8.78511 9.44782 8.78516 9.28613C8.78516 9.1623 8.73454 9.04885 8.56348 8.90625C8.3759 8.74999 8.11168 8.61492 7.77637 8.44727C7.46926 8.29371 7.09032 8.10752 6.7959 7.8623C6.48506 7.60327 6.21407 7.23353 6.21387 6.71484C6.21387 6.44889 6.25838 6.19797 6.375 5.98145C6.49707 5.75519 6.67791 5.60429 6.88086 5.51074C7.0723 5.42253 7.27593 5.38865 7.45508 5.37305C7.46995 5.37175 7.48497 5.37121 7.5 5.37012V4.57129C7.50003 4.29517 7.72388 4.07129 8 4.07129Z" fill="#A3A3A3"/>
</g>
</svg>
